<?xml version="1.0" encoding="utf-8"?>
<!-- Generator: Adobe Illustrator 26.3.1, SVG Export Plug-In . SVG Version: 6.00 Build 0)  -->
<svg version="1.1" id="Layer_1" xmlns="http://www.w3.org/2000/svg" xmlns:xlink="http://www.w3.org/1999/xlink" x="0px" y="0px"
	 viewBox="0 0 1200 1200" style="enable-background:new 0 0 1200 1200;" xml:space="preserve">
<style type="text/css">
	.st0{fill:#94CCDF;}
	.st1{fill:#CCDFE3;}
	.st2{fill:#EBE4D4;}
	.st3{fill:#2B6377;}
	.st4{fill:#11393C;}
	.st5{fill:#FAF7ED;}
</style>
<g>
	<path fill="#2B6377" d="M272.88,512.12v175.77h654.24V512.12H272.88z M916.85,678.72h-633.7V521.28h633.7V678.72z"/>
	<g>
		<path fill="#2B6377" d="M362.8,627.19l22.07-57.81h6.01l22.67,55.25c0.5,1.2,0.7,2.15,0.6,2.85c-0.1,0.7-0.15,1.1-0.15,1.2l0.15,0.15
			l0.9-2.4l24.62-57.21h6.16l-32.28,75.22h-6.46l-22.22-53.15c-0.5-1.2-0.7-2.18-0.6-2.93c0.1-0.75,0.15-1.18,0.15-1.28l-0.15-0.15
			l-0.6,1.5l-21.32,56.01h-7.51l-32.73-75.22h15.92l23.72,55.11c0.5,1.2,0.7,2.15,0.6,2.85c-0.1,0.7-0.15,1.1-0.15,1.2l0.15,0.15
			L362.8,627.19z"/>
		<path fill="#2B6377" d="M511.74,633.49c1.5-1.5,2.7-3.25,3.6-5.25h2.55c-3.5,5.31-8.08,9.56-13.74,12.76
			c-5.66,3.21-11.94,4.81-18.84,4.81c-5.41,0-10.46-1.03-15.17-3.08c-4.7-2.05-8.81-4.83-12.31-8.33c-3.5-3.5-6.28-7.61-8.33-12.31
			c-2.05-4.7-3.08-9.76-3.08-15.17c0-5.41,1.02-10.46,3.08-15.17c2.05-4.7,4.83-8.81,8.33-12.31c3.5-3.5,7.61-6.28,12.31-8.33
			c4.7-2.05,9.76-3.08,15.17-3.08c4.51,0,8.76,0.7,12.76,2.1c4,1.4,7.66,3.38,10.96,5.93c3.3,2.55,6.13,5.56,8.48,9.01
			c2.35,3.45,4.08,7.23,5.18,11.34c0.1,0.4,0.2,0.88,0.3,1.42c0.1,0.55,0.2,1.03,0.3,1.43l0.45,2.1h-70.12
			c0.8,4.01,2.33,8.03,4.58,12.09c2.25,4.06,5.18,7.88,8.78,11.49c3.61,3.61,7.48,6.56,11.64,8.86c4.15,2.3,8.26,3.83,12.31,4.58
			c4.06,0.75,7.88,0.7,11.49-0.15c3.61-0.85,6.66-2.53,9.16-5.03L511.74,633.49z M459.04,580.94c-2,2-3.48,4.38-4.43,7.13
			c-0.95,2.75-1.33,5.73-1.13,8.93h56.6c-0.9-1.4-1.88-2.75-2.93-4.05c-1.05-1.3-2.23-2.6-3.53-3.9c-3.6-3.6-7.48-6.53-11.64-8.78
			c-4.15-2.25-8.26-3.75-12.31-4.5c-4.05-0.75-7.88-0.73-11.49,0.07c-3.6,0.8-6.66,2.45-9.16,4.96V580.94z"/>
		<path fill="#2B6377" d="M596.72,633.49c1.5-1.5,2.7-3.25,3.6-5.25h2.55c-3.5,5.31-8.08,9.56-13.74,12.76
			c-5.66,3.21-11.94,4.81-18.84,4.81c-5.41,0-10.46-1.03-15.17-3.08c-4.7-2.05-8.81-4.83-12.31-8.33c-3.5-3.5-6.28-7.61-8.33-12.31
			c-2.05-4.7-3.08-9.76-3.08-15.17c0-5.41,1.02-10.46,3.08-15.17c2.05-4.7,4.83-8.81,8.33-12.31c3.5-3.5,7.61-6.28,12.31-8.33
			c4.7-2.05,9.76-3.08,15.17-3.08c4.51,0,8.76,0.7,12.76,2.1c4,1.4,7.66,3.38,10.96,5.93c3.3,2.55,6.13,5.56,8.48,9.01
			c2.35,3.45,4.08,7.23,5.18,11.34c0.1,0.4,0.2,0.88,0.3,1.42c0.1,0.55,0.2,1.03,0.3,1.43l0.45,2.1h-70.12
			c0.8,4.01,2.33,8.03,4.58,12.09c2.25,4.06,5.18,7.88,8.78,11.49c3.61,3.61,7.48,6.56,11.64,8.86c4.15,2.3,8.26,3.83,12.31,4.58
			c4.06,0.75,7.88,0.7,11.49-0.15c3.61-0.85,6.66-2.53,9.16-5.03L596.72,633.49z M544.02,580.94c-2,2-3.48,4.38-4.43,7.13
			c-0.95,2.75-1.33,5.73-1.13,8.93h56.6c-0.9-1.4-1.88-2.75-2.93-4.05c-1.05-1.3-2.23-2.6-3.53-3.9c-3.6-3.6-7.48-6.53-11.64-8.78
			c-4.15-2.25-8.26-3.75-12.31-4.5c-4.05-0.75-7.88-0.73-11.49,0.07c-3.6,0.8-6.66,2.45-9.16,4.96V580.94z"/>
		<path fill="#2B6377" d="M695.07,569.53l-37.54,75.07h-7.81l-39.79-75.07h16.37l30.33,58.56c0.7,1.4,0.95,2.48,0.75,3.23
			c-0.2,0.75-0.35,1.23-0.45,1.43l0.15,0.15l0.9-1.8l31.23-61.56H695.07z"/>
		<path fill="#2B6377" d="M719.24,569.53v75.22h-14.11v-75.22H719.24z"/>
		<path fill="#2B6377" d="M797.77,642.65c-1.6,0.5-3.15,0.98-4.65,1.43s-3.05,0.78-4.65,0.98c-3.5,0.5-6.81,0.6-9.91,0.3
			c-2.7-0.3-5.36-0.9-7.96-1.8c-2.6-0.9-5.06-2.15-7.36-3.75c-6.21-4.2-10.26-9.56-12.16-16.07c-1.3-4.6-1.95-9.46-1.95-14.56
			c0-5.11,0-10.06,0-14.87v-19.97h-43.99v-5.11h45.79v-0.15c-0.3,0-0.6-0.1-0.9-0.3c-0.5-0.3-0.75-1-0.75-2.1v-3.3V539.2h14.41
			v30.18h32.28l-2.55,5.1h-29.88v15.77v8.56c0,1.3,0.02,2.6,0.07,3.9c0.05,1.3-0.22,2.55-0.83,3.75c-0.8,1.7-1.65,3.33-2.55,4.88
			c-0.9,1.55-1.65,3.18-2.25,4.88c-0.6,1.8-1,3.7-1.2,5.7c-0.2,2-0.15,3.98,0.15,5.93c0.3,1.95,0.88,3.78,1.73,5.48
			c0.85,1.7,2.03,3.15,3.53,4.35c2.3,1.7,4.85,2.63,7.66,2.78c2.8,0.15,5.5,0.13,8.11-0.07c3.1-0.2,6.06-0.8,8.86-1.8
			c1.4-0.5,2.68-1.13,3.83-1.88c1.15-0.75,2.28-1.52,3.38-2.33l0.15-0.15L797.77,642.65z"/>
		<path fill="#2B6377" d="M864.13,633.49c1.5-1.5,2.7-3.25,3.6-5.25h2.55c-3.5,5.31-8.08,9.56-13.74,12.76
			c-5.66,3.21-11.94,4.81-18.84,4.81c-5.41,0-10.46-1.03-15.17-3.08c-4.7-2.05-8.81-4.83-12.31-8.33c-3.5-3.5-6.28-7.61-8.33-12.31
			c-2.05-4.7-3.08-9.76-3.08-15.17c0-5.41,1.02-10.46,3.08-15.17c2.05-4.7,4.83-8.81,8.33-12.31c3.5-3.5,7.61-6.28,12.31-8.33
			c4.7-2.05,9.76-3.08,15.17-3.08c4.51,0,8.76,0.7,12.76,2.1c4,1.4,7.66,3.38,10.96,5.93c3.3,2.55,6.13,5.56,8.48,9.01
			c2.35,3.45,4.08,7.23,5.18,11.34c0.1,0.4,0.2,0.88,0.3,1.42c0.1,0.55,0.2,1.03,0.3,1.43l0.45,2.1h-70.12
			c0.8,4.01,2.33,8.03,4.58,12.09c2.25,4.06,5.18,7.88,8.78,11.49c3.61,3.61,7.48,6.56,11.64,8.86c4.15,2.3,8.26,3.83,12.31,4.58
			c4.06,0.75,7.88,0.7,11.49-0.15c3.61-0.85,6.66-2.53,9.16-5.03L864.13,633.49z M811.43,580.94c-2,2-3.48,4.38-4.43,7.13
			c-0.95,2.75-1.33,5.73-1.13,8.93h56.6c-0.9-1.4-1.88-2.75-2.93-4.05c-1.05-1.3-2.23-2.6-3.53-3.9c-3.6-3.6-7.48-6.53-11.64-8.78
			s-8.26-3.75-12.31-4.5c-4.05-0.75-7.88-0.73-11.49,0.07c-3.6,0.8-6.66,2.45-9.16,4.96V580.94z"/>
	</g>
</g>
</svg>
